<svg xmlns="http://www.w3.org/2000/svg" viewBox="0 0 64 64" width="64" height="64">
  <defs>
    <linearGradient id="bg" x1="0%" y1="0%" x2="100%" y2="100%">
      <stop offset="0%" style="stop-color:#2563EB"/>
      <stop offset="100%" style="stop-color:#1D4ED8"/>
    </linearGradient>
    <linearGradient id="gold" x1="0%" y1="0%" x2="100%" y2="100%">
      <stop offset="0%" style="stop-color:#F59E0B"/>
      <stop offset="100%" style="stop-color:#D97706"/>
    </linearGradient>
  </defs>
  
  <!-- Shield background -->
  <path d="M7 8 L57 8 L57 38 Q57 56 32 62 Q7 56 7 38 Z" fill="url(#bg)" rx="3"/>
  
  <!-- Inner border -->
  <path d="M11 12 L53 12 L53 36 Q53 52 32 57 Q11 52 11 36 Z" fill="none" stroke="#F59E0B" stroke-width="1.5" opacity="0.7"/>
  
  <!-- Trophy icon -->
  <g transform="translate(32, 30)">
    <path d="M-10 -14 L10 -14 L8 -2 Q6 6 0 9 Q-6 6 -8 -2 Z" fill="url(#gold)"/>
    <path d="M-10 -12 Q-16 -10 -14 -4 Q-12 1 -8 -1" fill="none" stroke="#F59E0B" stroke-width="1.8" stroke-linecap="round"/>
    <path d="M10 -12 Q16 -10 14 -4 Q12 1 8 -1" fill="none" stroke="#F59E0B" stroke-width="1.8" stroke-linecap="round"/>
    <rect x="-2.5" y="9" width="5" height="3" rx="1" fill="#F59E0B"/>
    <rect x="-7" y="12" width="14" height="3" rx="1.5" fill="#F59E0B"/>
    <polygon points="0,-11 1.5,-8 5,-8 2.5,-5.5 3.5,-2 0,-4 -3.5,-2 -2.5,-5.5 -5,-8 -1.5,-8" fill="white" opacity="0.9"/>
  </g>
</svg>
